<svg xmlns="http://www.w3.org/2000/svg" viewBox="0 0 1024 1024"><path fill="currentColor" d="M512 64C264.6 64 64 264.6 64 512s200.6 448 448 448 448-200.6 448-448S759.4 64 512 64zm0 820c-205.4 0-372-166.6-372-372s166.6-372 372-372 372 166.6 372 372-166.6 372-372 372z"/><path fill="currentColor" d="M512 192c-16.8 0-32.3 1.3-47.2 3.7l67.5 270.3c17.4 6 36.6 9.4 56.3 9.4 123.5 0 223.6-100.1 223.6-223.6 0-56.8-21.2-109.5-56.3-147.6C695 213.5 607.8 192 512 192zm234.7 410.2l-270.2-67.6C252.3 566.8 192.4 627.5 192.4 697.4c0 82.5 67.1 149.6 149.6 149.6 69.9 0 130.6-49.9 148.5-118.4.7-2.7 1-5.4 1-8.2-.1-37.3-30.2-67.2-66.8-67.2z"/></svg>