<svg xmlns="http://www.w3.org/2000/svg" viewBox="0 0 1024 1024"><path fill="currentColor" d="M480 64H544V128H480V64zM480 192H544V512H480V192zM480 576H544V640H480V576zM384 192h64v320h-64V192zm64 448h64v64h-64V640zm0-192h64v128h-64V448zm192 192h64v64h-64V640zm64-64h64v128h-64V576zm0-192h64v192h-64V384zM160 192h64v640h-64V192zm576 0h64v640h-64V192zM128 256h64v384h-64V256zm576 0h64v384h-64V256zM256 320h64v384h-64V320zm192 0h64v384h-64V320zm256 0h64v384h-64V320zm-64 128h64v128h-64V448zm128 0h64v128h-64V448zm-64 64h64v64h-64V512zm64 0h64v64h-64V512zm-192 0h64v64h-64V512zm192 0h64v64h-64V512z"/></svg>