<svg xmlns="http://www.w3.org/2000/svg" viewBox="0 0 1024 1024"><path fill="currentColor" d="M512 64C264.6 64 64 264.6 64 512s200.6 448 448 448 448-200.6 448-448S759.4 64 512 64zm0 820c-212.1 0-384-171.9-384-384s171.9-384 384-384 384 171.9 384 384-171.9 384-384 384zm-96-544c-35.3 0-64 28.7-64 64v320c0 35.3 28.7 64 64 64h192c35.3 0 64-28.7 64-64V404c0-35.3-28.7-64-64-64H416zm384 352c0 35.3-28.7 64-64 64H544v64c0 35.3-28.7 64-64 64-35.3 0-64-28.7-64-64V404c0-35.3 28.7-64 64-64h192c35.3 0 64 28.7 64 64v320z"/></svg>