<svg xmlns="http://www.w3.org/2000/svg" viewBox="0 0 1024 1024"><path fill="currentColor" d="M512 64C264.6 64 64 264.6 64 512s200.6 448 448 448 448-200.6 448-448S759.4 64 512 64zm0 832c-212.1 0-384-171.9-384-384s171.9-384 384-384 384 171.9 384 384-171.9 384-384 384zm-64-320c-35.3 0-64 28.7-64 64v64H320c-35.3 0-64-28.7-64-64V128c0-35.3 28.7-64 64-64h64v64c0 35.3 28.7 64 64 64h128v64zM576 256h-64V192h64c35.3 0 64 28.7 64 64v32h-64v-32c0-35.3-28.7-32-32-32zM448 576h-64v-64h64v64zm192 0h-64v-64h64v64zM832 448H576v64h256c35.3 0 64 28.7 64 64v128c0 35.3-28.7 64-64 64h-64v64c0 35.3-28.7 64-64 64H320c-35.3 0-64-28.7-64-64V320c0-35.3 28.7-64 64-64h448v192z"/></svg>